# xmcd
#
# Track frame offsets: 
#        150
#        14101
#        27267
#        32456
#        47235
#        58156
#        77636
#        89332
#        94303
#        108922
#        122536
#        136451
#        151129
#        165949
#        180557
#        193881
#        200908
#        212813
#        225230
#        235006
#        246994
#        262819
#        278127
#        292933
#        306469
#        321059
#
# Disc length: 4458 seconds
#
# Revision: 0
# Processed by: cddbd v1.5.2PL0 Copyright (c) Steve Scherf et al.
# Submitted via: ExactAudioCopy v0.95b3
#
DISCID=6811681a
DTITLE=Billie Holiday  - Volume 16 - 1946-1948 - Complete Edition [Mas
DTITLE=ters of Jazz]
DYEAR=1900
DGENRE=
TTITLE0=The Blues Are Brewin'
TTITLE1=Guilty
TTITLE2=Guilty
TTITLE3=Guilty
TTITLE4=The Man I Love
TTITLE5=Do You Know What It Means To Miss New Orleans?
TTITLE6=Don't Explain
TTITLE7=Deep Song
TTITLE8=Deep Song
TTITLE9=There Is No Greater Love
TTITLE10=There Is No Greater Love
TTITLE11=Easy Living
TTITLE12=Solitude
TTITLE13=Solitude
TTITLE14=You Better Go Now
TTITLE15=You're Driving Me Crazy
TTITLE16=There Is No Greater Love
TTITLE17=I Cover the Waterfront
TTITLE18=That Ole Devil Called Love
TTITLE19=I'll Be Seeing You
TTITLE20=I Cover the Waterfront
TTITLE21=Weep No More
TTITLE22=Girls Were Made to Take Care of Boys
TTITLE23=I Loves You. Porgy
TTITLE24=My Man
TTITLE25=My Man
EXTD=
EXTT0=
EXTT1=
EXTT2=
EXTT3=
EXTT4=
EXTT5=
EXTT6=
EXTT7=
EXTT8=
EXTT9=
EXTT10=
EXTT11=
EXTT12=
EXTT13=
EXTT14=
EXTT15=
EXTT16=
EXTT17=
EXTT18=
EXTT19=
EXTT20=
EXTT21=
EXTT22=
EXTT23=
EXTT24=
EXTT25=
PLAYORDER=
